<?xml version="1.0" encoding="UTF-8" standalone="no"?>
<svg id="svg2" xmlns:rdf="http://www.w3.org/1999/02/22-rdf-syntax-ns#" xmlns="http://www.w3.org/2000/svg" height="600" width="900" version="1.0" xmlns:cc="http://creativecommons.org/ns#" xmlns:dc="http://purl.org/dc/elements/1.1/" viewBox="-45 -45 243 162">
 <metadata id="metadata3097">
  <rdf:RDF>
   <cc:Work rdf:about="">
    <dc:format>image/svg+xml</dc:format>
    <dc:type rdf:resource="http://purl.org/dc/dcmitype/StillImage"/>
    <dc:title/>
   </cc:Work>
  </rdf:RDF>
 </metadata>
 <defs id="defs58"></defs>
 <g id="g12745">
  <rect id="rect4" height="162" width="243" y="-45" x="-45" fill="#FFF"/>
  <path id="path6" d="M45-18h153m-153,36h153m-243,36h243m-243,36h243" stroke="#0020a6" stroke-width="18" fill="none"/>
  <g id="g2820" transform="matrix(0.2494969,0,0,0.2494969,140.60126,-16.926595)">
   <g id="g3181" stroke-linejoin="miter" transform="translate(-1013.5393,-232.15725)" stroke="#806900" stroke-miterlimit="4" stroke-width="2.5">
    <path id="rect2649" style="stroke-dasharray:none;" d="M450,167.78l-38.72,38.72h-54.78v54.78l-38.72,38.72,38.72,38.72v54.78h54.78l38.72,38.72,38.72-38.72h54.78v-54.78l38.72-38.72-38.72-38.72v-54.78h-54.78l-38.72-38.72z" fill-rule="evenodd" stroke-dashoffset="0.99999998" stroke-linecap="square" fill="#ffd200"/>
    <path id="path3105" d="M543.5,362.47l-187-124.94m185.42,154.39l-183.84-183.84m154.39,185.42l-124.94-187m101.2,187l-77.46-187m60.67,203.78l-43.88-220.56m21.94,240.28v-260m-21.94,240.28l43.88-220.56m-60.67,203.78l77.46-187m-101.2,187l124.94-187m-154.39,185.42l183.84-183.84m-185.42,154.39l187-124.94m-187,101.2l187-77.46m-203.78,60.67l220.56-43.88m-240.28,21.94h260m-36.5,38.73l-187-77.46m203.78,60.67l-220.56-43.88" stroke-linecap="round" fill="none"/>
   </g>
   <g id="g3177" transform="translate(-1013.5393,-232.15725)">
    <path id="path2639" stroke-linejoin="bevel" style="stroke-dasharray:none;" d="M11.29,174.2a29.032,29.032,0,1,1,-58.064,0,29.032,29.032,0,1,1,58.064,0z" fill-rule="evenodd" transform="matrix(1.887301,0,0,1.887301,483.4841,-28.76156)" stroke-dashoffset="0.99999998" stroke="#806900" stroke-linecap="square" stroke-miterlimit="4" stroke-width="1.32464302" fill="#ffd200"/>
    <path id="path2641" fill="#806900" d="M427.61,271.2c-5.24,0.28-15.76,4.82-17.24,7.11-0.02,0.03-0.06,0.09-0.08,0.13-0.02,0.02-0.03,0.06-0.04,0.08-0.02,0.05-0.04,0.13-0.04,0.17v0.08,0.08,0.05c0,0.01,0.03,0.07,0.04,0.08,0.01,0.02,0.03,0.06,0.04,0.08,0.01,0.01,0.03,0.04,0.04,0.05,0.01,0,0.04,0.03,0.04,0.04,0.01,0,0.04,0.03,0.05,0.04l0.04,0.04c0.01,0.01,0.07,0.04,0.08,0.04l0.04,0.04c1.03,0.64,3.27,0.18,6.03-1.25,7.6-3.93,15.09-3.53,22.01,1.17,3.64,2.48,5.52,3.73,6.19,3.85h0.08,0.05,0.04c0.01-0.01,0.07-0.03,0.08-0.04v-0.04c0.01-0.01,0.04-0.04,0.04-0.04v-0.05-0.04-0.04-0.08c-0.07-0.42-0.49-1.2-1.08-2.31-2.19-4.08-11.02-9.24-15.86-9.24h-0.17c-0.12,0-0.25-0.01-0.38,0zm43.65,0c-5.08,0.38-13.19,5.37-15.44,9.58-0.6,1.1-1,1.85-1.09,2.22-0.01,0.02,0,0.06,0,0.08v0.04,0.04,0.05l0.04,0.04h0.04,0.04,0.05,0.04c0.38-0.13,1.29-0.78,2.8-1.88,9.75-7.11,17.26-7.87,26.95-2.68,2.22,1.19,4.08,1.36,4.98,0.46,0-0.01,0.03-0.04,0.04-0.04,0.01-0.02,0.03-0.07,0.04-0.09s0.03-0.06,0.04-0.08v-0.09-0.04-0.08-0.08c0-0.01,0.01-0.04,0-0.05,0-0.01-0.03-0.03-0.04-0.04-0.01-0.04-0.03-0.09-0.04-0.12-1.19-2.33-12.67-7.24-17.83-7.24-0.07,0-0.17-0.01-0.25,0-0.12,0-0.25-0.01-0.37,0zm-43.1,8.99c-0.18,0.01-0.37,0.04-0.55,0.05-3.64,0.2-7.44,1.2-10.54,3.09-2.63,1.6-4.23,2.91-4.69,3.68-0.03,0.06-0.06,0.12-0.08,0.17-0.01,0.02-0.04,0.06-0.04,0.09-0.01,0,0,0.03,0,0.04v0.08,0.08c0,0.02,0.03,0.07,0.04,0.09l0.04,0.04,0.04,0.04,0.04,0.04c0.02,0.01,0.07,0.04,0.09,0.05,0.4,0.15,1.26,0.09,2.59-0.26,1.05-0.27,1.95-0.21,2.39,0.09,0.01,0,0.03,0.03,0.04,0.04l0.17,0.17c0.01,0.03,0.03,0.09,0.04,0.12,0.01,0.06,0.03,0.14,0.04,0.21v0.09,0.08,0.04c-0.18,0.89,1.35,2.5,3.43,3.6,7.11,3.74,17.26,1.35,19.12-4.52,1.47-4.62-4.93-7.45-12.17-7.2zm41.34,0.13c-0.23,0-0.48,0.03-0.71,0.04-3.03,0.15-5.74,0.81-7.33,1.97-3.45,2.52-2.12,7.51,2.6,9.79,1.86,0.9,5.07,1.67,7.15,1.71,4.63,0.1,11.44-3.32,11.05-5.52-0.01-0.05,0-0.12,0-0.17,0-0.06-0.01-0.15,0-0.21,0.02-0.05,0.06-0.12,0.09-0.16,0.01-0.03,0.05-0.09,0.08-0.13,0-0.01,0.03-0.03,0.04-0.04,0.03-0.03,0.12-0.09,0.17-0.13,0.46-0.25,1.27-0.25,2.26,0,1.3,0.34,2.18,0.4,2.59,0.26,0.02-0.02,0.07-0.04,0.09-0.05,0.01,0,0.06-0.03,0.08-0.04,0.01,0,0.03-0.03,0.04-0.04s0.04-0.07,0.04-0.08c0.01-0.02,0.04-0.06,0.04-0.09,0.01,0,0-0.03,0-0.04s0.01-0.06,0-0.08c0-0.01,0.01-0.04,0-0.04,0-0.03-0.03-0.07-0.04-0.09-0.01-0.05-0.05-0.11-0.08-0.17-0.46-0.77-2.06-2.08-4.69-3.68-3.36-2.05-8.74-3.12-13.47-3.01zm-48.71,4.52c0.04-0.01,0.09,0,0.13,0h0.04,0.08,0.05c0.01,0.01,0.06,0.04,0.08,0.04,0.09,0.02,0.2,0.07,0.29,0.13,0.65,0.39,1.37,1.54,1.72,2.88,0.33,1.28,0.55,2.36,0.58,2.76v0.09,0.04h-0.04c-0.13-0.07-1.09-0.46-2.13-0.88-0.05-0.02-0.12-0.06-0.17-0.08-1.49-0.77-2.07-3.2-1.42-4.35,0.09-0.16,0.23-0.32,0.37-0.42,0.05-0.03,0.12-0.06,0.17-0.09,0.06-0.02,0.15-0.06,0.21-0.08,0.01,0,0.03-0.04,0.04-0.04zm58.17,0.04c0.03-0.01,0.08,0,0.12,0,0.1,0,0.25,0.02,0.34,0.04,0.09,0.03,0.21,0.11,0.29,0.17,0.35,0.29,0.63,0.92,0.63,1.88,0,1.16-0.98,2.45-2.14,2.89-0.34,0.13-0.65,0.21-0.88,0.21h-0.12c-0.03-0.01-0.1-0.03-0.13-0.04-0.02-0.01-0.06-0.03-0.08-0.04-0.01-0.01-0.04-0.04-0.04-0.05l-0.04-0.04c-0.03-0.02-0.07-0.06-0.09-0.08-0.01-0.02-0.03-0.06-0.04-0.09l-0.04-0.04c-0.01-0.01,0-0.03,0-0.04-0.01-0.02-0.04-0.07-0.04-0.08-0.01-0.01,0-0.04,0-0.05-0.09-0.38-0.04-0.97,0.16-1.75,0.34-1.3,0.95-2.22,1.55-2.64,0.16-0.1,0.35-0.17,0.5-0.21,0.02,0,0.03-0.04,0.05-0.04zm-42.35,0.04c0.03,0,0.06,0.01,0.08,0h0.09,0.21,0.04c0.05,0.01,0.12,0.03,0.17,0.04,0.1,0.03,0.23,0.08,0.33,0.13,0.03,0.02,0.09,0.06,0.13,0.08,0.04,0.03,0.12,0.09,0.16,0.13l0.04,0.04c0.07,0.06,0.16,0.15,0.21,0.21,0.01,0.01,0.04,0.03,0.05,0.04,0.12,0.15,0.25,0.35,0.37,0.55,0.01,0,0.04,0.03,0.04,0.04,0.02,0.03,0.04,0.1,0.05,0.12v0.13c-0.02,0.75-1.24,1.91-3.02,2.72-1.41,0.64-2.27,1.02-2.67,1.04h-0.05s-0.03,0.01-0.04,0c-0.01,0-0.03-0.03-0.04-0.04h-0.04c-0.01,0-0.04-0.03-0.04-0.04-0.01-0.01-0.04-0.03-0.05-0.04v-0.04-0.04-0.05-0.04c0.01-0.03,0.03-0.09,0.05-0.12,0.12-0.38,0.48-1.03,1.04-1.93,1.1-1.75,2.05-2.75,2.89-2.93zm26.99,0.04c0.03,0,0.06,0.01,0.08,0h0.09,0.08,0.04,0.09,0.04c0,0.01,0.03,0.04,0.04,0.05h0.04c0.01,0,0.04,0.03,0.04,0.04,0.01,0,0.03,0.03,0.04,0.04,0.23,0.35,1.27,1.77,2.35,3.18,0.75,0.98,1.26,1.66,1.42,2.05,0.01,0.02,0.04,0.06,0.04,0.08,0.01,0.01,0,0.04,0,0.05v0.08,0.04,0.04c0,0.01-0.03,0.04-0.04,0.04-0.01,0.01-0.03,0.04-0.04,0.05h-0.04-0.04-0.05-0.08-0.08c-0.58-0.15-1.83-0.79-3.81-1.89-1.19-0.65-1.94-1.25-2.26-1.75-0.05-0.08-0.1-0.18-0.13-0.26-0.01-0.03-0.03-0.09-0.04-0.12v-0.08-0.05-0.04-0.04-0.04c0.01-0.02,0.04-0.07,0.04-0.09,0.01,0,0-0.03,0-0.04,0.01,0,0.04-0.03,0.04-0.04,0.01-0.01,0-0.03,0-0.04,0.01-0.01,0.04-0.04,0.05-0.04,0.01-0.02,0.02-0.07,0.04-0.09,0.11-0.14,0.29-0.29,0.5-0.41,0.59-0.37,1.14-0.64,1.55-0.72zm-21.8,18.16c-0.01,0.01-0.04,0.04-0.04,0.05-0.02,0-0.07,0.03-0.09,0.04-0.01,0.01-0.06,0.03-0.08,0.04-0.03,0.02-0.09,0.06-0.13,0.08-0.01,0.01-0.03,0.04-0.04,0.05-0.62,0.53-1.6,1.94-2.72,4.1-1.26,2.44-3.79,4.67-5.61,4.93-1.81,0.27-3.65,1.52-4.05,2.77-0.18,0.53-0.26,0.93-0.26,1.17v0.04c0.01,0.01,0,0.03,0,0.04,0.01,0.03,0.03,0.1,0.05,0.13l0.04,0.04h0.04l0.04,0.04h0.04c0.03-0.01,0.09-0.03,0.13-0.04,0.02-0.01,0.06-0.04,0.08-0.04,0.27-0.12,0.71-0.4,1.26-0.84,3.76-3.02,12.06-4.04,15.94-1.97,2.92,1.57,4.32,1.57,7.24,0,3.88-2.07,12.18-1.05,15.94,1.97,0.56,0.44,0.98,0.72,1.26,0.84,0.02,0,0.06,0.03,0.08,0.04h0.04c0.02,0.01,0.07,0.03,0.09,0.04h0.04c0.01-0.01,0.03-0.04,0.04-0.04h0.04v-0.04c0.01-0.01,0.04-0.04,0.04-0.05,0.01-0.01,0.04-0.06,0.05-0.08v-0.04-0.04c-0.01-0.24-0.12-0.64-0.3-1.17-0.41-1.25-2.24-2.5-4.06-2.77-1.81-0.26-4.3-2.49-5.56-4.93-1.07-2.07-2.02-3.44-2.64-4.02,0-0.01-0.03-0.04-0.04-0.04-0.05-0.05-0.13-0.1-0.17-0.13-0.02-0.01-0.06-0.03-0.08-0.04-0.03-0.02-0.1-0.07-0.13-0.08,0-0.01-0.03,0-0.04,0-0.01-0.01-0.07,0-0.08,0h-0.04c-0.01,0-0.04-0.01-0.04,0h-0.05s-0.03,0.03-0.04,0.04-0.03,0.07-0.04,0.08-0.03,0.04-0.04,0.04v0.09c-0.09,0.44,0.03,1.42,0.5,2.88,0.32,1.01,0.48,1.7,0.42,2.14v0.04c-0.01,0.04-0.03,0.1-0.04,0.13v0.04c-0.01,0-0.04,0.03-0.04,0.04-0.01,0.01-0.04,0.07-0.05,0.08,0,0.01-0.03,0.04-0.04,0.04,0,0.01-0.04,0.04-0.04,0.05-0.01,0-0.03,0.03-0.04,0.04h-0.04c-0.01,0.01-0.04,0.03-0.05,0.04h-0.04c-0.01,0.01-0.03,0.03-0.04,0.04h-0.08c-0.41,0.09-1.06,0-2.01-0.25-0.89-0.23-1.63-0.28-2.14-0.17-0.03,0.01-0.09,0.04-0.12,0.05s-0.1,0.02-0.13,0.04c-0.02,0.01-0.06,0.03-0.08,0.04-0.01,0-0.03,0.04-0.04,0.04-0.02,0.01-0.07,0.03-0.09,0.04,0,0.01-0.03,0.04-0.04,0.04,0,0.01-0.03,0.04-0.04,0.05s-0.03,0.03-0.04,0.04c-0.02,0.02-0.03,0.06-0.04,0.08s-0.04,0.06-0.05,0.09c0,0,0.01,0.03,0,0.04,0,0.01-0.04,0.03-0.04,0.04v0.04c0,0.02,0.01,0.07,0,0.09v0.04,0.08,0.08,0.09,0.04c0.18,0.96-1.39,1.76-3.47,1.76s-3.61-0.8-3.43-1.76c0.02-0.12,0.02-0.24,0-0.33s-0.05-0.18-0.09-0.26-0.13-0.18-0.2-0.25c-0.01,0-0.04-0.03-0.05-0.04-0.02-0.01-0.06-0.03-0.08-0.04-0.48-0.24-1.33-0.25-2.43,0.04-0.91,0.24-1.55,0.32-1.96,0.25h-0.09c-0.03-0.01-0.09-0.03-0.12-0.04-0.02-0.01-0.07-0.03-0.09-0.04,0-0.01-0.03-0.04-0.04-0.04-0.01-0.02-0.07-0.07-0.08-0.09-0.01,0-0.04-0.03-0.04-0.04-0.02-0.02-0.04-0.07-0.05-0.08,0-0.02-0.03-0.07-0.04-0.09v-0.08c-0.08-0.43,0.05-1.12,0.38-2.18,0.46-1.46,0.63-2.44,0.54-2.88,0-0.02-0.03-0.07-0.04-0.09v-0.04l-0.04-0.04c-0.01-0.02-0.04-0.07-0.04-0.08h-0.04-0.05c0-0.01-0.03-0.04-0.04-0.05h-0.04c0,0.01-0.04,0-0.04,0zm-14.94,16.78c-0.38,0.13-1.09,0.53-2.22,1.13-1.87,1-3.43,2.83-3.43,4.1,0,0.56,0.13,1.04,0.29,1.34,0.03,0.04,0.06,0.09,0.09,0.13,0,0.01,0.03,0.03,0.04,0.04l0.04,0.04,0.04,0.04c0.01,0.01,0.04,0.04,0.04,0.05,0.03,0.01,0.07,0.03,0.09,0.04l0.04,0.04h0.08,0.05,0.08,0.08c0.02-0.01,0.07-0.03,0.09-0.04s0.06-0.03,0.08-0.04h0.04c0.01-0.01,0.04-0.04,0.04-0.05h0.05,0.04,0.08c1.17-0.09,5.43,1.12,10,2.89,12.02,4.66,22.16,4.64,34.48,0,4.88-1.83,9.34-3,10.55-2.84,0.01,0,0.03-0.01,0.04,0h0.08c0.01,0,0.04,0.03,0.04,0.04h0.05c0,0.01,0.03,0.03,0.04,0.04l0.04,0.04,0.04,0.04c0.01,0.01,0.04,0.04,0.04,0.05,0.03,0.01,0.1,0.03,0.13,0.04h0.04,0.04,0.04,0.05c0.01-0.01,0.07-0.04,0.08-0.04,0.01-0.01,0.03-0.04,0.04-0.05,0.01,0,0.04-0.03,0.04-0.04,0.01,0,0.03-0.03,0.05-0.04,0-0.01,0.03-0.07,0.04-0.08,0.01-0.02,0.03-0.07,0.04-0.09,0.02-0.03,0.07-0.12,0.08-0.17,0.1-0.29,0.13-0.72,0.13-1.21,0-1.36-1.52-3.27-3.39-4.27-1.26-0.67-2.05-1.06-2.39-1.13h-0.08-0.04-0.04v0.05h-0.05v0.04c0.01,0,0.04,0.04,0.05,0.04,0,0.01-0.01,0.03,0,0.04,0,0.02,0.03,0.06,0.04,0.08,0.14,0.3,0.55,0.84,1.17,1.59,0.75,0.91,1.29,1.55,1.42,1.93,0.01,0.02,0.04,0.07,0.04,0.08,0.01,0.01,0,0.04,0,0.05v0.04s-0.03,0.03-0.04,0.04v0.04c-0.01,0.01-0.03,0.04-0.04,0.04,0,0.01-0.03,0.03-0.04,0.04h-0.04c-0.01,0.01-0.04,0.04-0.04,0.05h-0.05-0.08c-0.8,0.06-3.14-0.6-7.87-1.97-4.11-1.19-11.9-2.18-17.32-2.18s-13.21,0.99-17.32,2.18c-4.87,1.41-7.18,2.08-7.91,1.97-0.04-0.01-0.1-0.03-0.13-0.05-0.01,0-0.07-0.03-0.08-0.04v-0.04l-0.04-0.04v-0.04-0.04-0.05c0-0.01,0.03-0.07,0.04-0.08,0.13-0.38,0.67-1.02,1.42-1.93,0.62-0.75,1.03-1.29,1.17-1.59,0.01-0.02,0.04-0.06,0.04-0.08,0.01-0.01,0-0.03,0-0.04v-0.04c0-0.01,0.01-0.04,0-0.04v-0.05h-0.04-0.04-0.04c-0.02,0-0.06,0.01-0.08,0h-0.05-0.04c-0.01,0.01-0.03,0-0.04,0zm13.77,6.11c0.31-0.01,0.65,0.01,1,0,2.05-0.03,4.8,0,8.37,0,8.81,0,12.7,0.04,13.35,0.46,0,0.01,0.03,0.04,0.04,0.04v0.05c0.01,0,0.03,0.03,0.04,0.04v0.04s-0.04,0.04-0.04,0.04c-0.01,0.01-0.03,0.03-0.04,0.04s-0.03,0.04-0.04,0.05c-0.31,0.29-1.26,0.7-2.68,1.25-6.61,2.55-12.65,2.53-20.46-0.04-1.72-0.57-2.9-0.97-3.31-1.26-0.01,0-0.03-0.03-0.04-0.04l-0.04-0.04-0.04-0.04c0-0.01-0.01-0.04,0-0.04-0.01-0.01,0-0.04,0-0.05v-0.04s0.03-0.04,0.04-0.04c0.02-0.01,0.07-0.03,0.08-0.04h0.04c0.45-0.17,1.63-0.32,3.73-0.38zm8.53,12.05c-0.66,0.05-1.28,0.16-1.8,0.3-0.25,0.06-0.44,0.15-0.54,0.21,0,0-0.04,0.03-0.04,0.04h-0.04v0.04,0.04l0.04,0.04c0,0.01,0.03,0.04,0.04,0.05,0.03,0.01,0.09,0.03,0.13,0.04,0.43,0.14,1.5,0.25,3.05,0.25,1.69,0,2.82-0.13,3.18-0.29,0.01-0.01,0.03,0,0.04,0,0.01-0.01,0.04-0.04,0.04-0.05v-0.04h0.05v-0.04h-0.05v-0.04l-0.04-0.04c-0.01-0.01-0.07-0.04-0.08-0.05-0.1-0.05-0.26-0.11-0.46-0.16-0.87-0.23-2.09-0.34-3.22-0.3-0.1,0.01-0.2,0-0.3,0z"/>
   </g>
  </g>
 </g>
</svg>